{
  "accessors": [
    {
      "bufferView": 3,
      "componentType": 5126,
      "count": 7810,
      "max": [
        2.9389584064483643,
        4.269222259521484,
        4.322089672088623
      ],
      "min": [
        -2.938964605331421,
        -8.011866157175973e-06,
        -4.065495014190674
      ],
      "type": "VEC3"
    },
    {
      "bufferView": 3,
      "byteOffset": 93720,
      "componentType": 5126,
      "count": 7810,
      "max": [
        1.0,
        1.0,
        1.0
      ],
      "min": [
        -1.0,
        -1.0,
        -1.0
      ],
      "type": "VEC3"
    },
    {
      "bufferView": 4,
      "componentType": 5126,
      "count": 7810,
      "max": [
        1.0,
        1.0,
        1.0,
        1.0
      ],
      "min": [
        -1.0,
        -1.0,
        -1.0,
        -1.0
      ],
      "type": "VEC4"
    },
    {
      "bufferView": 2,
      "componentType": 5126,
      "count": 7810,
      "max": [
        0.9973030090332031,
        0.9960669875144958
      ],
      "min": [
        0.0031220000237226486,
        0.00209200382232666
      ],
      "type": "VEC2"
    },
    {
      "bufferView": 1,
      "componentType": 5125,
      "count": 24120,
      "type": "SCALAR"
    },
    {
      "bufferView": 5,
      "componentType": 5126,
      "count": 24,
      "max": [
        1.0,
        0.5014547109603882,
        0.9442760944366455,
        0.0,
        0.9497915506362915,
        1.0000001192092896,
        0.9913450479507446,
        0.0,
        0.6549351215362549,
        0.9237291812896729,
        1.0,
        0.0,
        3.2876603603363037,
        0.18756259977817535,
        3.182239294052124,
        1.0
      ],
      "min": [
        -0.933903157711029,
        -0.5014546513557434,
        -0.9442762136459351,
        0.0,
        -0.9497900009155273,
        -0.754100501537323,
        -0.7762396335601807,
        0.0,
        -0.6549350619316101,
        -0.855166494846344,
        -0.707528293132782,
        0.0,
        -3.2876617908477783,
        -3.830733299255371,
        -2.124915361404419,
        1.0
      ],
      "type": "MAT4"
    },
    {
      "bufferView": 0,
      "componentType": 5123,
      "count": 7810,
      "type": "VEC4"
    },
    {
      "bufferView": 4,
      "byteOffset": 124960,
      "componentType": 5126,
      "count": 7810,
      "max": [
        1.0,
        0.0,
        0.0,
        0.0
      ],
      "min": [
        1.0,
        0.0,
        0.0,
        0.0
      ],
      "type": "VEC4"
    }
  ],
  "asset": {
    "extras": {
      "author": "photon (that one larry) (https://sketchfab.com/Professor_E12)",
      "license": "CC-BY-4.0 (http://creativecommons.org/licenses/by/4.0/)",
      "source": "https://sketchfab.com/3d-models/fujin-ceb84ae0207a4491ba6b29c6498b78fb",
      "title": "Fujin"
    },
    "generator": "Sketchfab-17.8.0",
    "version": "2.0"
  },
  "bufferViews": [
    {
      "buffer": 0,
      "byteLength": 62480,
      "byteStride": 8,
      "name": "shortBufferViews",
      "target": 34962
    },
    {
      "buffer": 0,
      "byteLength": 96480,
      "byteOffset": 62480,
      "name": "floatBufferViews",
      "target": 34963
    },
    {
      "buffer": 0,
      "byteLength": 62480,
      "byteOffset": 158960,
      "byteStride": 8,
      "name": "floatBufferViews",
      "target": 34962
    },
    {
      "buffer": 0,
      "byteLength": 187440,
      "byteOffset": 221440,
      "byteStride": 12,
      "name": "floatBufferViews",
      "target": 34962
    },
    {
      "buffer": 0,
      "byteLength": 249920,
      "byteOffset": 408880,
      "byteStride": 16,
      "name": "floatBufferViews",
      "target": 34962
    },
    {
      "buffer": 0,
      "byteLength": 1536,
      "byteOffset": 658800,
      "name": "floatBufferViews"
    }
  ],
  "buffers": [
    {
      "byteLength": 660336,
      "uri": "scene.bin"
    }
  ],
  "extensionsUsed": [
    "KHR_materials_specular"
  ],
  "images": [
    {
      "uri": "textures/material_fujin_baseColor.png"
    },
    {
      "uri": "textures/material_fujin_normal.png"
    },
    {
      "uri": "textures/material_fujin_specularf0.png"
    }
  ],
  "materials": [
    {
      "doubleSided": true,
      "extensions": {
        "KHR_materials_specular": {
          "specularColorFactor": [
            1.0,
            1.0,
            1.0
          ],
          "specularFactor": 1.0,
          "specularTexture": {
            "index": 2
          }
        }
      },
      "name": "material_fujin",
      "normalTexture": {
        "index": 1
      },
      "pbrMetallicRoughness": {
        "baseColorTexture": {
          "index": 0
        },
        "metallicFactor": 0.0,
        "roughnessFactor": 0.5
      }
    }
  ],
  "meshes": [
    {
      "name": "Object_0",
      "primitives": [
        {
          "attributes": {
            "JOINTS_0": 6,
            "NORMAL": 1,
            "POSITION": 0,
            "TANGENT": 2,
            "TEXCOORD_0": 3,
            "TEXCOORD_1": 3,
            "WEIGHTS_0": 7
          },
          "indices": 4,
          "material": 0,
          "mode": 4
        }
      ]
    }
  ],
  "nodes": [
    {
      "children": [
        1
      ],
      "matrix": [
        1.0,
        0.0,
        0.0,
        0.0,
        0.0,
        2.220446049250313e-16,
        -1.0,
        0.0,
        0.0,
        1.0,
        2.220446049250313e-16,
        0.0,
        0.0,
        0.0,
        0.0,
        1.0
      ],
      "name": "Sketchfab_model"
    },
    {
      "children": [
        2
      ],
      "name": "root"
    },
    {
      "children": [
        3
      ],
      "matrix": [
        1.0,
        0.0,
        0.0,
        0.0,
        0.0,
        2.220446049250313e-16,
        1.0,
        0.0,
        0.0,
        -1.0,
        2.220446049250313e-16,
        0.0,
        0.0,
        0.0,
        0.0,
        1.0
      ],
      "name": "GLTF_SceneRootNode"
    },
    {
      "children": [
        4
      ],
      "name": "fujin_ARM_24"
    },
    {
      "children": [
        5,
        7,
        6
      ],
      "name": "GLTF_created_0"
    },
    {
      "children": [
        8
      ],
      "name": "GLTF_created_0_rootJoint"
    },
    {
      "name": "fujin.SMD_23"
    },
    {
      "mesh": 0,
      "name": "Object_7",
      "skin": 0
    },
    {
      "children": [
        9
      ],
      "name": "Main_22",
      "rotation": [
        -1.8225779285785393e-07,
        0.0,
        0.0,
        1.0
      ]
    },
    {
      "children": [
        10,
        11,
        16,
        21,
        26
      ],
      "name": "B_21",
      "translation": [
        9.52500016637714e-08,
        1.4839164018630981,
        -1.5239999129335047e-07
      ]
    },
    {
      "name": "Head_0",
      "scale": [
        1.0,
        0.9999999403953552,
        1.0
      ],
      "translation": [
        -1.7145001152130135e-07,
        0.8935922384262085,
        1.33349601583177e-07
      ]
    },
    {
      "children": [
        12
      ],
      "name": "LF1 L_5",
      "rotation": [
        -0.11972939968109131,
        -0.7445903420448303,
        -0.6422902941703796,
        0.13679659366607666
      ],
      "scale": [
        0.9999999403953552,
        0.9999999403953552,
        1.0
      ],
      "translation": [
        0.7704110741615295,
        0.14202508330345154,
        0.42699211835861206
      ]
    },
    {
      "children": [
        13
      ],
      "name": "LF2 L_4",
      "rotation": [
        -0.00961909070611,
        -0.915282666683197,
        0.40268000960350037,
        0.003731987439095974
      ],
      "scale": [
        1.0,
        0.9999996423721313,
        1.0000001192092896
      ],
      "translation": [
        1.5087425708770752e-07,
        0.4788358211517334,
        2.2351741790771484e-08
      ]
    },
    {
      "children": [
        14
      ],
      "name": "LF3 L_3",
      "rotation": [
        -0.44341182708740234,
        -0.5513991713523865,
        0.45034259557724,
        0.5445516705513
      ],
      "scale": [
        1.0000001192092896,
        1.000000238418579,
        1.0000001192092896
      ],
      "translation": [
        4.0864688344299793e-07,
        1.288437843322754,
        -4.76837158203125e-07
      ]
    },
    {
      "children": [
        15
      ],
      "name": "LF4 L_2",
      "rotation": [
        0.4868450462818146,
        0.5100080966949463,
        -0.49745792150497437,
        0.5053802728652954
      ],
      "scale": [
        0.9999998807907104,
        0.9999999403953552,
        1.0
      ],
      "translation": [
        3.248453140258789e-06,
        0.9890660047531128,
        -1.1222437024116516e-06
      ]
    },
    {
      "name": "LF5 L_1",
      "rotation": [
        -0.18800759315490723,
        0.6820849776268005,
        -0.18607091903686523,
        0.6817557215690613
      ],
      "scale": [
        1.0,
        1.0,
        1.0000001192092896
      ],
      "translation": [
        -1.5165423974394798e-06,
        1.643860101699829,
        -4.0084123611450195e-06
      ]
    },
    {
      "children": [
        17
      ],
      "name": "LB1 R_10",
      "rotation": [
        -0.6359133720397949,
        0.19663628935813904,
        0.17313501238822937,
        0.7259288430213928
      ],
      "scale": [
        0.9999999403953552,
        0.9999999403953552,
        0.9999999403953552
      ],
      "translation": [
        -0.7704121470451355,
        0.14202359318733215,
        -0.4269922971725464
      ]
    },
    {
      "children": [
        18
      ],
      "name": "LB2 R_9",
      "rotation": [
        -0.3960796594619751,
        0.001572652836330235,
        -0.00541645847260952,
        0.9181988835334778
      ],
      "scale": [
        0.9999999403953552,
        1.0,
        1.0
      ],
      "translation": [
        -3.562308847904205e-08,
        0.5335307121276855,
        -6.109476089477539e-07
      ]
    },
    {
      "children": [
        19
      ],
      "name": "LB3 R_8",
      "rotation": [
        0.632560670375824,
        -0.0005659661255776882,
        0.0025991061702370644,
        0.7745062708854675
      ],
      "translation": [
        1.9907020032405853e-07,
        1.2873042821884155,
        5.364418029785156e-07
      ]
    },
    {
      "children": [
        20
      ],
      "name": "LB4 R_7",
      "rotation": [
        -0.48994892835617065,
        0.5076173543930054,
        -0.49512699246406555,
        0.5070739984512329
      ],
      "scale": [
        0.9999998807907104,
        0.9999999403953552,
        1.0
      ],
      "translation": [
        -6.288755685091019e-07,
        0.988158643245697,
        -3.159046173095703e-06
      ]
    },
    {
      "name": "LB5 R_6",
      "rotation": [
        0.18639127910137177,
        -0.6826256513595581,
        0.18786035478115082,
        0.6811673641204834
      ],
      "scale": [
        1.0,
        1.0,
        0.9999999403953552
      ],
      "translation": [
        2.980232238769531e-07,
        1.6428589820861816,
        2.852058969438076e-06
      ]
    },
    {
      "children": [
        22
      ],
      "name": "LF1 R_15",
      "rotation": [
        -0.11972939968109131,
        0.7445903420448303,
        0.6422902941703796,
        0.13679659366607666
      ],
      "scale": [
        0.9999999403953552,
        0.9999999403953552,
        1.0
      ],
      "translation": [
        -0.7704110741615295,
        0.142024964094162,
        0.426992267370224
      ]
    },
    {
      "children": [
        23
      ],
      "name": "LF2 R_14",
      "rotation": [
        -0.009618553332984447,
        0.9152828454971313,
        -0.4026796221733093,
        0.0037317650858312845
      ],
      "scale": [
        0.9999999403953552,
        1.0,
        1.0000001192092896
      ],
      "translation": [
        -3.003515303134918e-07,
        0.47883594036102295,
        2.384185791015625e-07
      ]
    },
    {
      "children": [
        24
      ],
      "name": "LF3 R_13",
      "rotation": [
        -0.4434089660644531,
        0.5514006018638611,
        -0.45033949613571167,
        0.544555127620697
      ],
      "scale": [
        1.0000001192092896,
        0.9999998211860657,
        0.9999998211860657
      ],
      "translation": [
        3.1886156648397446e-07,
        1.288438081741333,
        5.066394805908203e-07
      ]
    },
    {
      "children": [
        25
      ],
      "name": "LF4 R_12",
      "rotation": [
        0.4868440628051758,
        -0.5100144743919373,
        0.4974527359008789,
        0.5053799748420715
      ],
      "scale": [
        0.9999998807907104,
        0.9999997019767761,
        0.9999999403953552
      ],
      "translation": [
        2.771615982055664e-06,
        0.9890671372413635,
        4.1350722312927246e-07
      ]
    },
    {
      "name": "LF5 R_11",
      "rotation": [
        -0.188003808259964,
        -0.6820881366729736,
        0.18606919050216675,
        0.6817541122436523
      ],
      "scale": [
        0.9999999403953552,
        1.0,
        1.0
      ],
      "translation": [
        5.78700564801693e-07,
        1.6438591480255127,
        -1.7881393432617188e-06
      ]
    },
    {
      "children": [
        27
      ],
      "name": "LB1 L_20",
      "rotation": [
        -0.6359134316444397,
        -0.19663667678833008,
        -0.1731346845626831,
        0.7259287238121033
      ],
      "scale": [
        1.0,
        0.9999999403953552,
        0.9999998807907104
      ],
      "translation": [
        0.770412266254425,
        0.14202359318733215,
        -0.4269924461841583
      ]
    },
    {
      "children": [
        28
      ],
      "name": "LB2 L_19",
      "rotation": [
        -0.3960796892642975,
        -0.0015725832199677825,
        0.005416817031800747,
        0.918198823928833
      ],
      "translation": [
        -3.282912075519562e-08,
        0.5335310101509094,
        -9.685754776000977e-08
      ]
    },
    {
      "children": [
        29
      ],
      "name": "LB3 L_18",
      "rotation": [
        0.6325581073760986,
        0.0005665496573783457,
        -0.002599928295239806,
        0.7745084762573242
      ],
      "scale": [
        0.9999998807907104,
        1.0000001192092896,
        1.0000001192092896
      ],
      "translation": [
        -5.345791578292847e-07,
        1.2873040437698364,
        6.854534149169922e-07
      ]
    },
    {
      "children": [
        30
      ],
      "name": "LB4 L_17",
      "rotation": [
        -0.4899463355541229,
        -0.5076184868812561,
        0.49512630701065063,
        0.5070759057998657
      ],
      "scale": [
        0.9999998807907104,
        0.9999998807907104,
        0.9999998807907104
      ],
      "translation": [
        -4.7334469854831696e-07,
        0.9881598353385925,
        2.8014183044433594e-06
      ]
    },
    {
      "name": "LB5 L_16",
      "rotation": [
        0.18638065457344055,
        0.6826275587081909,
        -0.18784858286380768,
        0.6811716556549072
      ],
      "scale": [
        0.9999999403953552,
        0.9999998211860657,
        0.9999998211860657
      ],
      "translation": [
        3.8743019104003906e-07,
        1.6428593397140503,
        -1.638487447053194e-06
      ]
    }
  ],
  "samplers": [
    {
      "magFilter": 9729,
      "minFilter": 9987,
      "wrapS": 10497,
      "wrapT": 10497
    }
  ],
  "scene": 0,
  "scenes": [
    {
      "name": "Sketchfab_Scene",
      "nodes": [
        0
      ]
    }
  ],
  "skins": [
    {
      "inverseBindMatrices": 5,
      "joints": [
        5,
        8,
        9,
        10,
        11,
        12,
        13,
        14,
        15,
        16,
        17,
        18,
        19,
        20,
        21,
        22,
        23,
        24,
        25,
        26,
        27,
        28,
        29,
        30
      ],
      "skeleton": 5
    }
  ],
  "textures": [
    {
      "sampler": 0,
      "source": 0
    },
    {
      "sampler": 0,
      "source": 1
    },
    {
      "sampler": 0,
      "source": 2
    }
  ]
}
