{
  "accessors": [
    {
      "bufferView": 2,
      "componentType": 5126,
      "count": 65532,
      "max": [
        87.65254211425781,
        171.19754028320313,
        35.30704116821289
      ],
      "min": [
        -86.49700927734375,
        -173.74925231933594,
        -0.040692999958992004
      ],
      "type": "VEC3"
    },
    {
      "bufferView": 2,
      "byteOffset": 786384,
      "componentType": 5126,
      "count": 65532,
      "max": [
        0.9999323487281799,
        0.9999536275863647,
        0.999697744846344
      ],
      "min": [
        -0.9999925494194031,
        -0.999447762966156,
        -0.8670668005943298
      ],
      "type": "VEC3"
    },
    {
      "bufferView": 1,
      "componentType": 5126,
      "count": 65532,
      "max": [
        0.9990620017051697,
        0.6055300235748291
      ],
      "min": [
        0.00024399999529123306,
        0.0004030000127386302
      ],
      "type": "VEC2"
    },
    {
      "bufferView": 0,
      "componentType": 5125,
      "count": 308301,
      "type": "SCALAR"
    },
    {
      "bufferView": 2,
      "byteOffset": 1572768,
      "componentType": 5126,
      "count": 65532,
      "max": [
        72.24040222167969,
        135.7556915283203,
        76.34895324707031
      ],
      "min": [
        -81.72886657714844,
        -131.7331085205078,
        -0.03072899952530861
      ],
      "type": "VEC3"
    },
    {
      "bufferView": 2,
      "byteOffset": 2359152,
      "componentType": 5126,
      "count": 65532,
      "max": [
        0.9999905228614807,
        0.9999982118606567,
        0.9999986290931702
      ],
      "min": [
        -0.9999553561210632,
        -0.9998890161514282,
        -0.9998760223388672
      ],
      "type": "VEC3"
    },
    {
      "bufferView": 1,
      "byteOffset": 524256,
      "componentType": 5126,
      "count": 65532,
      "max": [
        0.9997140169143677,
        0.6064450144767761
      ],
      "min": [
        0.00024399999529123306,
        0.09049999713897705
      ],
      "type": "VEC2"
    },
    {
      "bufferView": 0,
      "byteOffset": 1233204,
      "componentType": 5125,
      "count": 235977,
      "type": "SCALAR"
    },
    {
      "bufferView": 2,
      "byteOffset": 3145536,
      "componentType": 5126,
      "count": 65532,
      "max": [
        77.81480407714844,
        142.15806579589844,
        76.34895324707031
      ],
      "min": [
        -65.49930572509766,
        -131.7592010498047,
        -1.9999999949504854e-06
      ],
      "type": "VEC3"
    },
    {
      "bufferView": 2,
      "byteOffset": 3931920,
      "componentType": 5126,
      "count": 65532,
      "max": [
        0.999987781047821,
        0.9999982118606567,
        0.999991238117218
      ],
      "min": [
        -0.9998456239700317,
        -0.9998833537101746,
        -0.999961256980896
      ],
      "type": "VEC3"
    },
    {
      "bufferView": 1,
      "byteOffset": 1048512,
      "componentType": 5126,
      "count": 65532,
      "max": [
        0.9996410012245178,
        0.572613000869751
      ],
      "min": [
        0.00024399999529123306,
        0.0005159999709576368
      ],
      "type": "VEC2"
    },
    {
      "bufferView": 0,
      "byteOffset": 2177112,
      "componentType": 5125,
      "count": 224901,
      "type": "SCALAR"
    },
    {
      "bufferView": 2,
      "byteOffset": 4718304,
      "componentType": 5126,
      "count": 65532,
      "max": [
        50.25294494628906,
        161.89254760742188,
        103.6623306274414
      ],
      "min": [
        -63.16030502319336,
        -119.0179672241211,
        -9.999999974752427e-07
      ],
      "type": "VEC3"
    },
    {
      "bufferView": 2,
      "byteOffset": 5504688,
      "componentType": 5126,
      "count": 65532,
      "max": [
        0.9999138712882996,
        0.9999822378158569,
        0.9999939799308777
      ],
      "min": [
        -0.9999577403068542,
        -0.9999892115592957,
        -0.9999217391014099
      ],
      "type": "VEC3"
    },
    {
      "bufferView": 1,
      "byteOffset": 1572768,
      "componentType": 5126,
      "count": 65532,
      "max": [
        0.9997209906578064,
        0.532958984375
      ],
      "min": [
        0.00024399999529123306,
        0.0009609999833628535
      ],
      "type": "VEC2"
    },
    {
      "bufferView": 0,
      "byteOffset": 3076716,
      "componentType": 5125,
      "count": 210189,
      "type": "SCALAR"
    },
    {
      "bufferView": 2,
      "byteOffset": 6291072,
      "componentType": 5126,
      "count": 65532,
      "max": [
        71.26024627685547,
        164.47821044921875,
        75.2447738647461
      ],
      "min": [
        -78.38291931152344,
        -147.96966552734375,
        -0.04130300134420395
      ],
      "type": "VEC3"
    },
    {
      "bufferView": 2,
      "byteOffset": 7077456,
      "componentType": 5126,
      "count": 65532,
      "max": [
        0.9998058676719666,
        0.9999868869781494,
        0.9999929070472717
      ],
      "min": [
        -0.9999325275421143,
        -0.9999958872795105,
        -0.9999271035194397
      ],
      "type": "VEC3"
    },
    {
      "bufferView": 1,
      "byteOffset": 2097024,
      "componentType": 5126,
      "count": 65532,
      "max": [
        0.9997479915618896,
        0.5411720275878906
      ],
      "min": [
        0.00024399999529123306,
        0.001433999976143241
      ],
      "type": "VEC2"
    },
    {
      "bufferView": 0,
      "byteOffset": 3917472,
      "componentType": 5125,
      "count": 213444,
      "type": "SCALAR"
    },
    {
      "bufferView": 2,
      "byteOffset": 7863840,
      "componentType": 5126,
      "count": 65532,
      "max": [
        71.32023620605469,
        171.12294006347656,
        74.92020416259766
      ],
      "min": [
        -82.39668273925781,
        -128.1474609375,
        -0.0005009999731555581
      ],
      "type": "VEC3"
    },
    {
      "bufferView": 2,
      "byteOffset": 8650224,
      "componentType": 5126,
      "count": 65532,
      "max": [
        0.999987781047821,
        0.9998676180839539,
        0.9999921321868896
      ],
      "min": [
        -0.9998831152915955,
        -0.9999938607215881,
        -0.9999538660049438
      ],
      "type": "VEC3"
    },
    {
      "bufferView": 1,
      "byteOffset": 2621280,
      "componentType": 5126,
      "count": 65532,
      "max": [
        0.999750018119812,
        0.5412269830703735
      ],
      "min": [
        0.00024399999529123306,
        0.009297999553382397
      ],
      "type": "VEC2"
    },
    {
      "bufferView": 0,
      "byteOffset": 4771248,
      "componentType": 5125,
      "count": 232260,
      "type": "SCALAR"
    },
    {
      "bufferView": 2,
      "byteOffset": 9436608,
      "componentType": 5126,
      "count": 65532,
      "max": [
        86.4014892578125,
        -37.754005432128906,
        74.19091796875
      ],
      "min": [
        13.456317901611328,
        -131.9085693359375,
        0.6342650055885315
      ],
      "type": "VEC3"
    },
    {
      "bufferView": 2,
      "byteOffset": 10222992,
      "componentType": 5126,
      "count": 65532,
      "max": [
        0.9998958706855774,
        0.9999762177467346,
        0.9999884963035583
      ],
      "min": [
        -0.9999980926513672,
        -0.9999857544898987,
        -0.9999268651008606
      ],
      "type": "VEC3"
    },
    {
      "bufferView": 1,
      "byteOffset": 3145536,
      "componentType": 5126,
      "count": 65532,
      "max": [
        0.9997349977493286,
        0.541267991065979
      ],
      "min": [
        0.00024399999529123306,
        0.09705699980258942
      ],
      "type": "VEC2"
    },
    {
      "bufferView": 0,
      "byteOffset": 5700288,
      "componentType": 5125,
      "count": 228225,
      "type": "SCALAR"
    },
    {
      "bufferView": 2,
      "byteOffset": 11009376,
      "componentType": 5126,
      "count": 65532,
      "max": [
        85.74116516113281,
        103.52568054199219,
        75.25326538085938
      ],
      "min": [
        -53.96989059448242,
        -131.20294189453125,
        -9.999999974752427e-07
      ],
      "type": "VEC3"
    },
    {
      "bufferView": 2,
      "byteOffset": 11795760,
      "componentType": 5126,
      "count": 65532,
      "max": [
        0.9999911189079285,
        0.9999614953994751,
        0.9999993443489075
      ],
      "min": [
        -0.9999328851699829,
        -0.9999134540557861,
        -0.9999805092811584
      ],
      "type": "VEC3"
    },
    {
      "bufferView": 1,
      "byteOffset": 3669792,
      "componentType": 5126,
      "count": 65532,
      "max": [
        0.9997529983520508,
        0.572413980960846
      ],
      "min": [
        0.00024399999529123306,
        0.014898000285029411
      ],
      "type": "VEC2"
    },
    {
      "bufferView": 0,
      "byteOffset": 6613188,
      "componentType": 5125,
      "count": 241812,
      "type": "SCALAR"
    },
    {
      "bufferView": 2,
      "byteOffset": 12582144,
      "componentType": 5126,
      "count": 65534,
      "max": [
        76.26847839355469,
        174.91268920898438,
        74.83098602294922
      ],
      "min": [
        -86.0079345703125,
        -173.69558715820313,
        -0.006649999879300594
      ],
      "type": "VEC3"
    },
    {
      "bufferView": 2,
      "byteOffset": 13368552,
      "componentType": 5126,
      "count": 65534,
      "max": [
        0.9999883770942688,
        0.9999956488609314,
        0.9999929070472717
      ],
      "min": [
        -0.9999560117721558,
        -0.9999147653579712,
        -0.9994505047798157
      ],
      "type": "VEC3"
    },
    {
      "bufferView": 1,
      "byteOffset": 4194048,
      "componentType": 5126,
      "count": 65534,
      "max": [
        0.9996600151062012,
        0.5878159999847412
      ],
      "min": [
        0.00024399999529123306,
        0.002213000087067485
      ],
      "type": "VEC2"
    },
    {
      "bufferView": 0,
      "byteOffset": 7580436,
      "componentType": 5125,
      "count": 222657,
      "type": "SCALAR"
    },
    {
      "bufferView": 2,
      "byteOffset": 14154960,
      "componentType": 5126,
      "count": 65533,
      "max": [
        80.72957611083984,
        174.91114807128906,
        74.69766998291016
      ],
      "min": [
        -86.49305725097656,
        -169.86415100097656,
        -0.03620700165629387
      ],
      "type": "VEC3"
    },
    {
      "bufferView": 2,
      "byteOffset": 14941356,
      "componentType": 5126,
      "count": 65533,
      "max": [
        0.9999193549156189,
        0.9999536275863647,
        0.9999993443489075
      ],
      "min": [
        -0.9999741315841675,
        -0.9999497532844543,
        -0.9995998740196228
      ],
      "type": "VEC3"
    },
    {
      "bufferView": 1,
      "byteOffset": 4718320,
      "componentType": 5126,
      "count": 65533,
      "max": [
        0.9997299909591675,
        0.5968869924545288
      ],
      "min": [
        0.00024399999529123306,
        0.00024500000290572643
      ],
      "type": "VEC2"
    },
    {
      "bufferView": 0,
      "byteOffset": 8471064,
      "componentType": 5125,
      "count": 207192,
      "type": "SCALAR"
    },
    {
      "bufferView": 2,
      "byteOffset": 15727752,
      "componentType": 5126,
      "count": 65534,
      "max": [
        87.96000671386719,
        174.90089416503906,
        74.91192626953125
      ],
      "min": [
        -84.25602722167969,
        -178.10781860351563,
        -0.00901500042527914
      ],
      "type": "VEC3"
    },
    {
      "bufferView": 2,
      "byteOffset": 16514160,
      "componentType": 5126,
      "count": 65534,
      "max": [
        0.9999827742576599,
        0.9999954700469971,
        0.9999836683273315
      ],
      "min": [
        -0.9999924898147583,
        -0.9999099969863892,
        -0.9955402612686157
      ],
      "type": "VEC3"
    },
    {
      "bufferView": 1,
      "byteOffset": 5242584,
      "componentType": 5126,
      "count": 65534,
      "max": [
        0.9997310042381287,
        0.5719879865646362
      ],
      "min": [
        0.00024399999529123306,
        0.0070870001800358295
      ],
      "type": "VEC2"
    },
    {
      "bufferView": 0,
      "byteOffset": 9299832,
      "componentType": 5125,
      "count": 237729,
      "type": "SCALAR"
    },
    {
      "bufferView": 2,
      "byteOffset": 17300568,
      "componentType": 5126,
      "count": 65532,
      "max": [
        84.76396179199219,
        137.76052856445313,
        74.8875961303711
      ],
      "min": [
        -85.09393310546875,
        -178.00192260742188,
        -0.006254000123590231
      ],
      "type": "VEC3"
    },
    {
      "bufferView": 2,
      "byteOffset": 18086952,
      "componentType": 5126,
      "count": 65532,
      "max": [
        0.9999849796295166,
        0.9999215006828308,
        0.9999961256980896
      ],
      "min": [
        -0.9999724626541138,
        -0.9999927878379822,
        -0.9991850256919861
      ],
      "type": "VEC3"
    },
    {
      "bufferView": 1,
      "byteOffset": 5766856,
      "componentType": 5126,
      "count": 65532,
      "max": [
        0.9996860027313232,
        0.5352219939231873
      ],
      "min": [
        0.00024399999529123306,
        0.04525800049304962
      ],
      "type": "VEC2"
    },
    {
      "bufferView": 0,
      "byteOffset": 10250748,
      "componentType": 5125,
      "count": 203997,
      "type": "SCALAR"
    },
    {
      "bufferView": 2,
      "byteOffset": 18873336,
      "componentType": 5126,
      "count": 63168,
      "max": [
        86.3052749633789,
        137.61911010742188,
        74.9259033203125
      ],
      "min": [
        -81.23101806640625,
        -131.65695190429688,
        -0.007428999990224838
      ],
      "type": "VEC3"
    },
    {
      "bufferView": 2,
      "byteOffset": 19631352,
      "componentType": 5126,
      "count": 63168,
      "max": [
        0.9999551177024841,
        0.9999498724937439,
        0.9999995231628418
      ],
      "min": [
        -0.9999193549156189,
        -0.9999867677688599,
        -0.999650239944458
      ],
      "type": "VEC3"
    },
    {
      "bufferView": 1,
      "byteOffset": 6291112,
      "componentType": 5126,
      "count": 63168,
      "max": [
        0.9997140169143677,
        0.5519449710845947
      ],
      "min": [
        0.00024399999529123306,
        0.07446300238370895
      ],
      "type": "VEC2"
    },
    {
      "bufferView": 0,
      "byteOffset": 11066736,
      "componentType": 5125,
      "count": 191232,
      "type": "SCALAR"
    }
  ],
  "asset": {
    "extras": {
      "author": "Metazeon (https://sketchfab.com/Metazeon)",
      "license": "CC-BY-4.0 (http://creativecommons.org/licenses/by/4.0/)",
      "source": "https://sketchfab.com/3d-models/stranded-cargo-ship-giant-vessel-rusty-ship-44cf7cb4313041799d9e91fd9594531f",
      "title": "Stranded cargo ship, Giant vessel, Rusty ship"
    },
    "generator": "Sketchfab-17.14.0",
    "version": "2.0"
  },
  "bufferViews": [
    {
      "buffer": 0,
      "byteLength": 11831664,
      "name": "floatBufferViews",
      "target": 34963
    },
    {
      "buffer": 0,
      "byteLength": 6796456,
      "byteOffset": 11831664,
      "byteStride": 8,
      "name": "floatBufferViews",
      "target": 34962
    },
    {
      "buffer": 0,
      "byteLength": 20389368,
      "byteOffset": 18628120,
      "byteStride": 12,
      "name": "floatBufferViews",
      "target": 34962
    }
  ],
  "buffers": [
    {
      "byteLength": 39017488,
      "uri": "scene.bin"
    }
  ],
  "extensionsUsed": [
    "KHR_materials_specular"
  ],
  "images": [
    {
      "uri": "textures/20260101_005_RC_LOD0_u0_v0_baseColor.png"
    }
  ],
  "materials": [
    {
      "doubleSided": true,
      "extensions": {
        "KHR_materials_specular": {
          "specularColorFactor": [
            1.0,
            1.0,
            1.0
          ],
          "specularFactor": 0.1
        }
      },
      "name": "20260101_005_RC_LOD0_u0_v0",
      "pbrMetallicRoughness": {
        "baseColorFactor": [
          0.75,
          0.75,
          0.75,
          1.0
        ],
        "baseColorTexture": {
          "index": 0
        },
        "metallicFactor": 0.1,
        "roughnessFactor": 0.9
      }
    }
  ],
  "meshes": [
    {
      "name": "Object_0",
      "primitives": [
        {
          "attributes": {
            "NORMAL": 1,
            "POSITION": 0,
            "TEXCOORD_0": 2
          },
          "indices": 3,
          "material": 0,
          "mode": 4
        }
      ]
    },
    {
      "name": "Object_1",
      "primitives": [
        {
          "attributes": {
            "NORMAL": 5,
            "POSITION": 4,
            "TEXCOORD_0": 6
          },
          "indices": 7,
          "material": 0,
          "mode": 4
        }
      ]
    },
    {
      "name": "Object_2",
      "primitives": [
        {
          "attributes": {
            "NORMAL": 9,
            "POSITION": 8,
            "TEXCOORD_0": 10
          },
          "indices": 11,
          "material": 0,
          "mode": 4
        }
      ]
    },
    {
      "name": "Object_3",
      "primitives": [
        {
          "attributes": {
            "NORMAL": 13,
            "POSITION": 12,
            "TEXCOORD_0": 14
          },
          "indices": 15,
          "material": 0,
          "mode": 4
        }
      ]
    },
    {
      "name": "Object_4",
      "primitives": [
        {
          "attributes": {
            "NORMAL": 17,
            "POSITION": 16,
            "TEXCOORD_0": 18
          },
          "indices": 19,
          "material": 0,
          "mode": 4
        }
      ]
    },
    {
      "name": "Object_5",
      "primitives": [
        {
          "attributes": {
            "NORMAL": 21,
            "POSITION": 20,
            "TEXCOORD_0": 22
          },
          "indices": 23,
          "material": 0,
          "mode": 4
        }
      ]
    },
    {
      "name": "Object_6",
      "primitives": [
        {
          "attributes": {
            "NORMAL": 25,
            "POSITION": 24,
            "TEXCOORD_0": 26
          },
          "indices": 27,
          "material": 0,
          "mode": 4
        }
      ]
    },
    {
      "name": "Object_7",
      "primitives": [
        {
          "attributes": {
            "NORMAL": 29,
            "POSITION": 28,
            "TEXCOORD_0": 30
          },
          "indices": 31,
          "material": 0,
          "mode": 4
        }
      ]
    },
    {
      "name": "Object_8",
      "primitives": [
        {
          "attributes": {
            "NORMAL": 33,
            "POSITION": 32,
            "TEXCOORD_0": 34
          },
          "indices": 35,
          "material": 0,
          "mode": 4
        }
      ]
    },
    {
      "name": "Object_9",
      "primitives": [
        {
          "attributes": {
            "NORMAL": 37,
            "POSITION": 36,
            "TEXCOORD_0": 38
          },
          "indices": 39,
          "material": 0,
          "mode": 4
        }
      ]
    },
    {
      "name": "Object_10",
      "primitives": [
        {
          "attributes": {
            "NORMAL": 41,
            "POSITION": 40,
            "TEXCOORD_0": 42
          },
          "indices": 43,
          "material": 0,
          "mode": 4
        }
      ]
    },
    {
      "name": "Object_11",
      "primitives": [
        {
          "attributes": {
            "NORMAL": 45,
            "POSITION": 44,
            "TEXCOORD_0": 46
          },
          "indices": 47,
          "material": 0,
          "mode": 4
        }
      ]
    },
    {
      "name": "Object_12",
      "primitives": [
        {
          "attributes": {
            "NORMAL": 49,
            "POSITION": 48,
            "TEXCOORD_0": 50
          },
          "indices": 51,
          "material": 0,
          "mode": 4
        }
      ]
    }
  ],
  "nodes": [
    {
      "children": [
        1
      ],
      "matrix": [
        1.0,
        0.0,
        0.0,
        0.0,
        0.0,
        2.220446049250313e-16,
        -1.0,
        0.0,
        0.0,
        1.0,
        2.220446049250313e-16,
        0.0,
        0.0,
        0.0,
        0.0,
        1.0
      ],
      "name": "Sketchfab_model"
    },
    {
      "children": [
        2,
        3,
        4,
        5,
        6,
        7,
        8,
        9,
        10,
        11,
        12,
        13,
        14
      ],
      "name": "20260101_005_RC_LOD0.obj.cleaner.materialmerger.gles"
    },
    {
      "mesh": 0,
      "name": "Object_2"
    },
    {
      "mesh": 1,
      "name": "Object_3"
    },
    {
      "mesh": 2,
      "name": "Object_4"
    },
    {
      "mesh": 3,
      "name": "Object_5"
    },
    {
      "mesh": 4,
      "name": "Object_6"
    },
    {
      "mesh": 5,
      "name": "Object_7"
    },
    {
      "mesh": 6,
      "name": "Object_8"
    },
    {
      "mesh": 7,
      "name": "Object_9"
    },
    {
      "mesh": 8,
      "name": "Object_10"
    },
    {
      "mesh": 9,
      "name": "Object_11"
    },
    {
      "mesh": 10,
      "name": "Object_12"
    },
    {
      "mesh": 11,
      "name": "Object_13"
    },
    {
      "mesh": 12,
      "name": "Object_14"
    }
  ],
  "samplers": [
    {
      "magFilter": 9729,
      "minFilter": 9987,
      "wrapS": 10497,
      "wrapT": 10497
    }
  ],
  "scene": 0,
  "scenes": [
    {
      "name": "Sketchfab_Scene",
      "nodes": [
        0
      ]
    }
  ],
  "textures": [
    {
      "sampler": 0,
      "source": 0
    }
  ]
}
