{
  "accessors": [
    {
      "bufferView": 3,
      "componentType": 5126,
      "count": 19079,
      "max": [
        0.8216534852981567,
        1.7444616556167603,
        0.16379867494106293
      ],
      "min": [
        -0.8216534852981567,
        -0.0006587112438865006,
        -0.1339121162891388
      ],
      "type": "VEC3"
    },
    {
      "bufferView": 3,
      "byteOffset": 228948,
      "componentType": 5126,
      "count": 19079,
      "max": [
        1.0,
        0.9999486207962036,
        0.9999973773956299
      ],
      "min": [
        -1.0,
        -0.9999784827232361,
        -0.9999884366989136
      ],
      "type": "VEC3"
    },
    {
      "bufferView": 2,
      "componentType": 5126,
      "count": 19079,
      "max": [
        0.9998913407325745,
        0.9976974725723267
      ],
      "min": [
        0.0006557306624017656,
        0.003362119197845459
      ],
      "type": "VEC2"
    },
    {
      "bufferView": 1,
      "componentType": 5125,
      "count": 91050,
      "type": "SCALAR"
    },
    {
      "bufferView": 5,
      "componentType": 5126,
      "count": 53,
      "max": [
        1.0,
        0.0,
        0.0,
        0.0,
        0.0,
        1.0,
        0.0,
        0.0,
        0.0,
        0.0,
        1.0,
        0.0,
        0.7937529683113098,
        0.0,
        0.08125653117895126,
        1.0
      ],
      "min": [
        1.0,
        0.0,
        0.0,
        0.0,
        0.0,
        1.0,
        0.0,
        0.0,
        0.0,
        0.0,
        1.0,
        0.0,
        -0.7937526702880859,
        -1.5369728803634644,
        -0.10072237998247147,
        1.0
      ],
      "type": "MAT4"
    },
    {
      "bufferView": 0,
      "componentType": 5123,
      "count": 19079,
      "type": "VEC4"
    },
    {
      "bufferView": 4,
      "componentType": 5126,
      "count": 19079,
      "max": [
        1.0,
        0.49946460127830505,
        0.3032291829586029,
        0.13470587134361267
      ],
      "min": [
        0.3430132269859314,
        0.0,
        0.0,
        0.0
      ],
      "type": "VEC4"
    }
  ],
  "asset": {
    "extras": {
      "author": "fortniteCharacters (https://sketchfab.com/fortniteCharacters)",
      "license": "SKETCHFAB Standard (https://sketchfab.com/licenses)",
      "source": "https://sketchfab.com/3d-models/fortnite-emote-pen-pineapple-apple-pen-f15467a0df424f14984da5c590026ccf",
      "title": "fortnite emote [pen pineapple apple pen]"
    },
    "generator": "Sketchfab-17.15.0",
    "version": "2.0"
  },
  "bufferViews": [
    {
      "buffer": 0,
      "byteLength": 152632,
      "byteStride": 8,
      "name": "shortBufferViews",
      "target": 34962
    },
    {
      "buffer": 0,
      "byteLength": 364200,
      "byteOffset": 152632,
      "name": "floatBufferViews",
      "target": 34963
    },
    {
      "buffer": 0,
      "byteLength": 152632,
      "byteOffset": 516832,
      "byteStride": 8,
      "name": "floatBufferViews",
      "target": 34962
    },
    {
      "buffer": 0,
      "byteLength": 457896,
      "byteOffset": 669464,
      "byteStride": 12,
      "name": "floatBufferViews",
      "target": 34962
    },
    {
      "buffer": 0,
      "byteLength": 305264,
      "byteOffset": 1127360,
      "byteStride": 16,
      "name": "floatBufferViews",
      "target": 34962
    },
    {
      "buffer": 0,
      "byteLength": 3392,
      "byteOffset": 1432624,
      "name": "floatBufferViews"
    }
  ],
  "buffers": [
    {
      "byteLength": 1436016,
      "uri": "scene.bin"
    }
  ],
  "images": [
    {
      "uri": "textures/Body_baseColor.png"
    }
  ],
  "materials": [
    {
      "doubleSided": true,
      "name": "Body",
      "pbrMetallicRoughness": {
        "baseColorTexture": {
          "index": 0
        },
        "metallicFactor": 0.0,
        "roughnessFactor": 0.8875317349619302
      }
    }
  ],
  "meshes": [
    {
      "name": "Mannequin_Female_Body_0",
      "primitives": [
        {
          "attributes": {
            "JOINTS_0": 5,
            "NORMAL": 1,
            "POSITION": 0,
            "TEXCOORD_0": 2,
            "TEXCOORD_1": 2,
            "TEXCOORD_2": 2,
            "TEXCOORD_3": 2,
            "TEXCOORD_4": 2,
            "TEXCOORD_5": 2,
            "TEXCOORD_6": 2,
            "TEXCOORD_7": 2,
            "TEXCOORD_8": 2,
            "TEXCOORD_9": 2,
            "WEIGHTS_0": 6
          },
          "indices": 3,
          "material": 0,
          "mode": 4
        }
      ]
    }
  ],
  "nodes": [
    {
      "children": [
        1
      ],
      "matrix": [
        1.0,
        0.0,
        0.0,
        0.0,
        0.0,
        2.220446049250313e-16,
        -1.0,
        0.0,
        0.0,
        1.0,
        2.220446049250313e-16,
        0.0,
        0.0,
        0.0,
        0.0,
        1.0
      ],
      "name": "Sketchfab_model"
    },
    {
      "children": [
        2
      ],
      "matrix": [
        0.009999999776482582,
        0.0,
        0.0,
        0.0,
        0.0,
        0.0,
        0.009999999776482582,
        0.0,
        0.0,
        -0.009999999776482582,
        0.0,
        0.0,
        0.0,
        0.0,
        0.0,
        1.0
      ],
      "name": "a39e40b134034db68a94980ff5fc28bc.fbx"
    },
    {
      "children": [
        3
      ],
      "name": "RootNode"
    },
    {
      "children": [
        4
      ],
      "name": "RootNode"
    },
    {
      "children": [
        5,
        6
      ],
      "name": "Object_4"
    },
    {
      "children": [
        7
      ],
      "name": "_rootJoint"
    },
    {
      "mesh": 0,
      "name": "Object_6",
      "skin": 0
    },
    {
      "children": [
        8,
        51,
        55
      ],
      "name": "hips_JNT_01",
      "translation": [
        -2.381891135883052e-06,
        1.0122805833816528,
        0.004173778463155031
      ]
    },
    {
      "children": [
        9
      ],
      "name": "spine_JNT_02",
      "translation": [
        -4.2425394894962665e-06,
        0.09319809824228287,
        0.025434231385588646
      ]
    },
    {
      "children": [
        10
      ],
      "name": "spine1_JNT_03",
      "translation": [
        -3.7269449679189215e-20,
        0.10873104631900787,
        -4.5511688995247823e-07
      ]
    },
    {
      "children": [
        11,
        13,
        32
      ],
      "name": "spine2_JNT_04",
      "translation": [
        1.0164395367051604e-20,
        0.12426412105560303,
        -0.05951164662837982
      ]
    },
    {
      "children": [
        12
      ],
      "name": "neck_JNT_05",
      "translation": [
        -4.235164736271502e-21,
        0.13979707658290863,
        -0.01460481807589531
      ]
    },
    {
      "name": "head_JNT_06",
      "translation": [
        -5.082197683525802e-21,
        0.05870203301310539,
        0.020915038883686066
      ]
    },
    {
      "children": [
        14
      ],
      "name": "l_shoulder_JNT_07",
      "translation": [
        0.04399138689041138,
        0.12860988080501556,
        -0.014850102365016937
      ]
    },
    {
      "children": [
        15
      ],
      "name": "l_arm_JNT_08",
      "translation": [
        0.08757347613573074,
        -0.023119760677218437,
        -0.0004905169480480254
      ]
    },
    {
      "children": [
        16
      ],
      "name": "l_forearm_JNT_09",
      "translation": [
        0.26900070905685425,
        -5.346192892830004e-07,
        1.2771221236107522e-07
      ]
    },
    {
      "children": [
        17,
        20,
        23,
        26,
        29
      ],
      "name": "l_hand_JNT_00",
      "translation": [
        0.23014836013317108,
        -4.208977202324604e-07,
        -3.6675988468459764e-08
      ]
    },
    {
      "children": [
        18
      ],
      "name": "l_handThumb1_JNT_010",
      "translation": [
        0.03629999980330467,
        -0.007799999322742224,
        0.021300001069903374
      ]
    },
    {
      "children": [
        19
      ],
      "name": "l_handThumb2_JNT_011",
      "translation": [
        0.035511359572410583,
        -0.02118368074297905,
        0.022400597110390663
      ]
    },
    {
      "name": "l_handThumb3_JNT_012",
      "translation": [
        0.021591076627373695,
        -0.011163081042468548,
        0.009634670801460743
      ]
    },
    {
      "children": [
        21
      ],
      "name": "l_handIndex1_JNT_013",
      "translation": [
        0.10514853894710541,
        -0.0004101707600057125,
        0.02197566069662571
      ]
    },
    {
      "children": [
        22
      ],
      "name": "l_handIndex2_JNT_014",
      "translation": [
        0.027518264949321747,
        -0.0010286769829690456,
        -0.0013905412051826715
      ]
    },
    {
      "name": "l_handIndex3_JNT_015",
      "translation": [
        0.02353006601333618,
        -0.000733985158149153,
        -0.0009048703941516578
      ]
    },
    {
      "children": [
        24
      ],
      "name": "l_handMiddle1_JNT_016",
      "translation": [
        0.10067113488912582,
        0.0013920202618464828,
        0.0005957247340120375
      ]
    },
    {
      "children": [
        25
      ],
      "name": "l_handMiddle2_JNT_017",
      "translation": [
        0.03909026458859444,
        -0.002884061075747013,
        -0.00119065772742033
      ]
    },
    {
      "name": "l_handMiddle3_JNT_018",
      "translation": [
        0.02328396774828434,
        -0.00019107353000435978,
        -0.0005943967262282968
      ]
    },
    {
      "children": [
        27
      ],
      "name": "l_handRing1_JNT_019",
      "translation": [
        0.09468109905719757,
        0.0013223820133134723,
        -0.018098291009664536
      ]
    },
    {
      "children": [
        28
      ],
      "name": "l_handRing2_JNT_020",
      "translation": [
        0.03281529247760773,
        -0.0022404969204217196,
        -0.0003393660008441657
      ]
    },
    {
      "name": "l_handRing3_JNT_021",
      "translation": [
        0.022450005635619164,
        -0.000702132994774729,
        -8.389657159568742e-05
      ]
    },
    {
      "children": [
        30
      ],
      "name": "l_handPinky1_JNT_022",
      "translation": [
        0.08490771800279617,
        -0.0007777808350510895,
        -0.03584150969982147
      ]
    },
    {
      "children": [
        31
      ],
      "name": "l_handPinky2_JNT_023",
      "translation": [
        0.02532171830534935,
        -0.0007306996849365532,
        -0.00017039879458025098
      ]
    },
    {
      "name": "l_handPinky3_JNT_024",
      "translation": [
        0.019512081518769264,
        0.00025119271595031023,
        0.00017009006114676595
      ]
    },
    {
      "children": [
        33
      ],
      "name": "r_shoulder_JNT_025",
      "translation": [
        -0.04397817328572273,
        0.12860606610774994,
        -0.014850107952952385
      ]
    },
    {
      "children": [
        34
      ],
      "name": "r_arm_JNT_026",
      "translation": [
        -0.08757320046424866,
        -0.02311999909579754,
        -0.0004905000096186996
      ]
    },
    {
      "children": [
        35
      ],
      "name": "r_forearm_JNT_027",
      "translation": [
        -0.269000381231308,
        -1.7763568394002505e-15,
        9.999999406318238e-08
      ]
    },
    {
      "children": [
        36,
        39,
        42,
        45,
        48
      ],
      "name": "r_hand_JNT_028",
      "translation": [
        -0.23014859855175018,
        1.7763568394002505e-15,
        -3.469446951953614e-17
      ]
    },
    {
      "children": [
        37
      ],
      "name": "r_handThumb1_JNT_029",
      "translation": [
        -0.03629999980330467,
        -0.007799999322742224,
        0.021300001069903374
      ]
    },
    {
      "children": [
        38
      ],
      "name": "r_handThumb2_JNT_030",
      "translation": [
        -0.03551199659705162,
        -0.02118000015616417,
        0.02240057848393917
      ]
    },
    {
      "name": "r_handThumb3_JNT_031",
      "translation": [
        -0.021591000258922577,
        -0.01116000022739172,
        0.009634669870138168
      ]
    },
    {
      "children": [
        40
      ],
      "name": "r_handIndex1_JNT_032",
      "translation": [
        -0.10514900088310242,
        -0.00041000000783242285,
        0.021975601091980934
      ]
    },
    {
      "children": [
        41
      ],
      "name": "r_handIndex2_JNT_033",
      "translation": [
        -0.027518000453710556,
        -0.001029999926686287,
        -0.0013904999941587448
      ]
    },
    {
      "name": "r_handIndex3_JNT_034",
      "translation": [
        -0.02352999895811081,
        -0.0007299999706447124,
        -0.0009048999636434019
      ]
    },
    {
      "children": [
        43
      ],
      "name": "r_handMiddle1_JNT_035",
      "translation": [
        -0.10067099332809448,
        0.00139999995008111,
        0.0005956999957561493
      ]
    },
    {
      "children": [
        44
      ],
      "name": "r_handMiddle2_JNT_036",
      "translation": [
        -0.039090998470783234,
        -0.0028899998869746923,
        -0.0011906999861821532
      ]
    },
    {
      "name": "r_handMiddle3_JNT_037",
      "translation": [
        -0.023283997550606728,
        -0.00018999999156221747,
        -0.0005943999858573079
      ]
    },
    {
      "children": [
        46
      ],
      "name": "r_handRing1_JNT_038",
      "translation": [
        -0.09468099474906921,
        0.0013299999991431832,
        -0.018098298460245132
      ]
    },
    {
      "children": [
        47
      ],
      "name": "r_handRing2_JNT_039",
      "translation": [
        -0.032816000282764435,
        -0.0022499999031424522,
        -0.0003393999650143087
      ]
    },
    {
      "name": "r_handRing3_JNT_040",
      "translation": [
        -0.022449998185038567,
        -0.000699999975040555,
        -8.38999985717237e-05
      ]
    },
    {
      "children": [
        49
      ],
      "name": "r_handPinky1_JNT_041",
      "translation": [
        -0.08490799367427826,
        -0.0007699999841861427,
        -0.03584149852395058
      ]
    },
    {
      "children": [
        50
      ],
      "name": "r_handPinky2_JNT_042",
      "translation": [
        -0.025321999564766884,
        -0.0007399999885819852,
        -0.0001703999878372997
      ]
    },
    {
      "name": "r_handPinky3_JNT_043",
      "translation": [
        -0.019511999562382698,
        0.00026000000070780516,
        0.0001700999855529517
      ]
    },
    {
      "children": [
        52
      ],
      "name": "l_upleg_JNT_044",
      "translation": [
        0.10061429440975189,
        -0.05185754597187042,
        -0.0070623308420181274
      ]
    },
    {
      "children": [
        53
      ],
      "name": "l_leg_JNT_045",
      "translation": [
        -0.003485725726932287,
        -0.4558240473270416,
        -0.00819168146699667
      ]
    },
    {
      "children": [
        54
      ],
      "name": "l_foot_JNT_046",
      "translation": [
        0.003491447540000081,
        -0.42332541942596436,
        -0.017084859311580658
      ]
    },
    {
      "name": "l_toebase_JNT_047",
      "translation": [
        0.0007027107058092952,
        -0.0812666267156601,
        0.12888747453689575
      ]
    },
    {
      "children": [
        56
      ],
      "name": "r_upleg_JNT_048",
      "translation": [
        -0.10060961544513702,
        -0.05185765027999878,
        -0.007062328513711691
      ]
    },
    {
      "children": [
        57
      ],
      "name": "r_leg_JNT_049",
      "translation": [
        0.003485799999907613,
        -0.45582398772239685,
        -0.008191649802029133
      ]
    },
    {
      "children": [
        58
      ],
      "name": "r_foot_JNT_050",
      "translation": [
        -0.003491800045594573,
        -0.42332538962364197,
        -0.01708490028977394
      ]
    },
    {
      "name": "r_toebase_JNT_051",
      "translation": [
        -0.0007020000484772027,
        -0.0812666043639183,
        0.1288871020078659
      ]
    }
  ],
  "samplers": [
    {
      "magFilter": 9729,
      "minFilter": 9987,
      "wrapS": 10497,
      "wrapT": 10497
    }
  ],
  "scene": 0,
  "scenes": [
    {
      "name": "Sketchfab_Scene",
      "nodes": [
        0
      ]
    }
  ],
  "skins": [
    {
      "inverseBindMatrices": 4,
      "joints": [
        5,
        7,
        8,
        9,
        10,
        11,
        12,
        13,
        14,
        15,
        16,
        17,
        18,
        19,
        20,
        21,
        22,
        23,
        24,
        25,
        26,
        27,
        28,
        29,
        30,
        31,
        32,
        33,
        34,
        35,
        36,
        37,
        38,
        39,
        40,
        41,
        42,
        43,
        44,
        45,
        46,
        47,
        48,
        49,
        50,
        51,
        52,
        53,
        54,
        55,
        56,
        57,
        58
      ],
      "skeleton": 5
    }
  ],
  "textures": [
    {
      "sampler": 0,
      "source": 0
    }
  ]
}
